<svg width="220" height="64" viewBox="0 0 220 64" fill="none" xmlns="http://www.w3.org/2000/svg">
  <rect width="64" height="64" rx="14" fill="#1A1A1A"/>
  <path d="M18 20H46V28H28V36H44V44H18V20Z" fill="#F5F0EB"/>
  <path d="M78 20H112C122 20 128 26 128 36C128 46 122 52 112 52H78V20ZM90 30V42H110C114 42 116 40 116 36C116 32 114 30 110 30H90Z" fill="#1A1A1A"/>
  <path d="M140 20H156L174 52H160L157 46H139L136 52H122L140 20ZM143 38H153L148 28L143 38Z" fill="#1A1A1A"/>
  <path d="M178 20H202C211 20 216 25 216 33C216 41 211 46 202 46H190V52H178V20ZM190 30V37H200C203 37 205 36 205 33.5C205 31 203 30 200 30H190Z" fill="#1A1A1A"/>
</svg>
